# xmcd CD database file
#
# Track frame offsets:
#	150
#	14642
#	31507
#	48302
#	62757
#	79735
#	93032
#	109535
#	122037
#	137540
#	154462
#	171275
#
# Disc length: 2452 seconds
#
# Revision: 2
# Processed by: cddbd v1.4b41PL1 Copyright (c) Steve Scherf et al.
# Submitted via: Feurio! 1.60 - http://www.feurio.com
#
DISCID=9009920c,9f09920c
DTITLE=Greyhounds - Country Songs And Honky Tonks -1989
DYEAR=1900
DGENRE=
TTITLE0=Country Songs And Honky Tonks
TTITLE1=Hallo Taxi
TTITLE2=Hello Miss Walky
TTITLE3=Surfin, Surfin, Surfin
TTITLE4=Juanita
TTITLE5=Der Albtraum
TTITLE6=Country - Sommer
TTITLE7=Rodeo Reiter
TTITLE8=Mein Diesel
TTITLE9=Happy, Happy Birthday Baby
TTITLE10=Jenny Mach Die Augen Auf
TTITLE11=Country Fan
EXTD=Cd - Vö-datum: 30.6.89\r\nkoch Inter, 89
EXTT0=
EXTT1=
EXTT2=
EXTT3=
EXTT4=
EXTT5=
EXTT6=
EXTT7=
EXTT8=
EXTT9=
EXTT10=
EXTT11=
PLAYORDER=
